HIERARCHY
ROOT pelvis
{
  OFFSET 0 100 0
  CHANNELS 6 Xposition Yposition Zposition Zrotation Xrotation Yrotation
  JOINT pelvis_right_femur
  {
    OFFSET -10.78128 -3.44521 -0.5502486
    CHANNELS 3 Zrotation Xrotation Yrotation
    JOINT right_femur_tibia
    {
      OFFSET -0.8047443 -44.0398 -0.1307829
      CHANNELS 3 Zrotation Xrotation Yrotation
      JOINT right_tibia_foot
      {
        OFFSET 3.006224 -47.83518 -5
        CHANNELS 3 Zrotation Xrotation Yrotation
        End Site
        {
          OFFSET 0 -5 15
        }
      }
    }
  }
  JOINT pelvis_left_femur
  {
    OFFSET 10.78128 -3.44521 -0.5502486
    CHANNELS 3 Zrotation Xrotation Yrotation
    JOINT left_femur_tibia
    {
      OFFSET 0.8047443 -44.0398 -0.1307829
      CHANNELS 3 Zrotation Xrotation Yrotation
      JOINT left_tibia_foot
      {
        OFFSET -4.370144 -48.10324 -4.275266
        CHANNELS 3 Zrotation Xrotation Yrotation
        End Site
        {
          OFFSET 0 -5 15
        }
      }
    }
  }
  JOINT pelvis_spine1
  {
    OFFSET 0 6.468898 -3.129235
    CHANNELS 3 Zrotation Xrotation Yrotation
    JOINT spine1
    {
      OFFSET 0 23.15396 4.99043
      CHANNELS 3 Zrotation Xrotation Yrotation
      JOINT spine2
      {
        OFFSET 0 20.79997 -5.064912
        CHANNELS 3 Zrotation Xrotation Yrotation
        JOINT neck
        {
          OFFSET 0 14.38658 9.616178
          CHANNELS 3 Zrotation Xrotation Yrotation
          End Site
          {
            OFFSET 0 20 0
          }
        }
      }
      JOINT right_manubrium
      {
        OFFSET -5.722621 16.35077 3.967754
        CHANNELS 3 Zrotation Xrotation Yrotation
        JOINT right_clavicle
        {
          OFFSET -13.16364 1.694482 -4.693211
          CHANNELS 3 Zrotation Xrotation Yrotation
          JOINT right_humerus
          {
            OFFSET -28.5034 -0.3100689 -2.792744
            CHANNELS 3 Zrotation Xrotation Yrotation
            JOINT right_radius
            {
              OFFSET -25.15693 0.02248979 -1.271978
              CHANNELS 3 Zrotation Xrotation Yrotation
              End Site
              {
                OFFSET -15 0 0
              }
            }
          }
        }
      }
      JOINT left_manubrium
      {
        OFFSET 5.722621 16.35077 3.967754
        CHANNELS 3 Zrotation Xrotation Yrotation
        JOINT left_clavicle
        {
          OFFSET 13.16364 1.694482 -4.693211
          CHANNELS 3 Zrotation Xrotation Yrotation
          JOINT left_humerus
          {
            OFFSET 29.39168 -1.063119 -2.237045
            CHANNELS 3 Zrotation Xrotation Yrotation
            JOINT left_radius
            {
              OFFSET 24.59957 -0.9528479 0.9047498
              CHANNELS 3 Zrotation Xrotation Yrotation
              End Site
              {
                OFFSET 15 -0 -0
              }
            }
          }
        }
      }
    }
  }
}
MOTION
Frames: 15
Frame Time: 0.0416666666667
0 103.5113 0 2.312261 -0.8710382 0.03150533 3.621173 -14.80265 11.6171 -0 37.49008 -0 -4.901465 -17.92301 -4.342211 -8.18035 9.325754 -21.2176 -0 6.315488 -0 22.52049 -9.631116 29.41175 -3.492518 -2.896757 6.324296 1.903634 10.23643 -6.137294 1.395545 22.2655 6.222722 3.234982 -23.62019 8.82464 5.342401 -20.70038 10.77659 85.62069 39.7616 -16.65322 -0 0 14.57241 -7.486557 6.903669 5.500578 4.892151 -19.59521 -3.552722 -90.2404 21.87696 20.35265 0 0 -18.57044 15.69633 11.13055 -1.987473
0.3955709 103.381 1.558316 1.710226 0.3192433 -0.03633109 4.668061 -17.69574 12.34979 -0 38.40019 -0 -5.076136 -16.99435 -4.034053 -8.059959 8.999032 -21.14703 -0 6.652528 -0 22.80456 -10.21686 29.83564 -3.779243 -3.284033 6.398422 1.980093 9.99015 -6.115585 1.363443 22.36352 6.404774 3.098666 -23.81907 9.217368 5.212988 -21.11928 10.73615 85.79625 40.53146 -16.67852 -0 0 14.67598 -6.829947 6.562106 5.47652 4.783795 -19.31706 -3.438871 -90.08468 22.05209 20.41378 0 0 -19.18624 16.34209 10.96221 -2.452403
0.6426476 103.0532 3.451496 1.282298 -0.04110871 -0.0235358 4.503591 -19.14287 8.756282 -0 35.02936 -0 -6.409283 -14.53705 -2.725252 -7.685962 10.30865 -20.89604 -0 7.17419 -0 17.80876 -13.74258 28.42942 -3.326428 -2.851002 6.331254 1.914566 10.25631 -6.215344 1.441011 22.19699 6.164564 3.202274 -23.75083 8.832759 5.361435 -20.60553 10.75274 85.74794 39.49084 -16.97446 -0 0 14.51039 -7.361528 7.070168 5.347903 4.989376 -19.73653 -3.46558 -90.45419 22.24846 20.46056 0 0 -18.71982 15.41232 11.38454 -1.536452
0.8098761 102.6655 5.66567 0.69892 0.1913767 -0.02138483 4.994742 -21.75538 7.067602 -0 32.9462 -0 -7.32182 -12.25581 -1.825739 -7.27718 10.92952 -20.36337 -0 8.010249 -0 15.48027 -15.75289 27.4439 -3.058455 -2.683109 6.28919 1.925109 10.36166 -6.330532 1.491647 22.08673 6.057758 3.223001 -23.8377 8.719962 5.450724 -20.34016 10.74542 85.89165 38.93997 -17.42616 -0 0 14.36568 -7.381678 7.33625 5.122858 5.13785 -20.00754 -3.433979 -90.76259 22.54194 20.56867 0 0 -18.64143 14.94202 11.73342 -0.9654124
0.9190073 102.1608 8.263766 0.2107119 0.1575616 -0.00315266 5.299183 -24.14895 5.089771 -0 30.06745 -0 -8.298766 -9.751276 -0.8963654 -6.840181 11.66924 -19.52964 -0 9.158757 -0 13.32591 -17.47332 26.07315 -2.81149 -2.481427 6.225753 1.926221 10.44373 -6.423147 1.52985 21.978 5.959853 3.251724 -23.88776 8.573896 5.515899 -20.06218 10.75208 85.91497 38.38228 -17.678 -0 0 14.23556 -7.584055 7.629091 5.061291 5.258966 -20.22321 -3.382236 -90.96992 22.77353 20.58424 0 0 -18.52634 14.36697 12.00577 -0.3484808
0.9961393 101.5775 11.29168 -0.2410889 0.1918999 0.03973786 5.640973 -26.52872 3.450487 -0 27.0639 -0 -9.180324 -7.238501 -0.0354372 -6.421389 12.31083 -18.51045 -0 10.7108 -0 11.80395 -18.63246 24.59742 -2.601751 -2.310984 6.156381 1.938875 10.49567 -6.512967 1.558735 21.87957 5.886615 3.272267 -23.94785 8.458307 5.569337 -19.8149 10.76051 85.93753 37.89942 -17.90457 -0 0 14.10738 -7.758646 7.888185 5.027695 5.36121 -20.40069 -3.322451 -91.13934 22.99314 20.58267 0 0 -18.45031 13.835 12.2424 0.221988
1.056483 100.9454 14.79679 -0.6053013 0.1957873 0.1240755 5.89093 -28.48609 1.923831 -0 23.89245 -0 -9.992576 -4.764953 0.7857609 -6.046305 12.90813 -17.32996 -0 12.77213 -0 10.50762 -19.26654 22.88774 -2.422538 -2.14457 6.078276 1.953552 10.52871 -6.591695 1.577465 21.79054 5.827777 3.292275 -23.99054 8.342562 5.610169 -19.57955 10.77614 85.92317 37.4605 -18.05157 -0 0 13.97989 -7.982597 8.132273 5.06468 5.439225 -20.5393 -3.262424 -91.24503 23.17227 20.53414 0 0 -18.38403 13.30127 12.42226 0.7714188
1.109954 100.3339 18.82179 -0.9194711 0.1985355 0.2577843 6.129133 -29.87256 0.6241604 -0 20.89621 -0 -10.73543 -2.399447 1.547326 -5.698099 13.37521 -16.02747 -0 15.58444 -0 9.299584 -19.2557 20.94074 -2.275211 -1.985778 5.996232 1.969308 10.54824 -6.658552 1.586698 21.71325 5.781625 3.311831 -24.0125 8.227448 5.640544 -19.3606 10.79809 85.88259 37.07287 -18.13213 -0 0 13.8533 -8.240847 8.35344 5.157182 5.492886 -20.64307 -3.209962 -91.2909 23.30478 20.4454 0 0 -18.32875 12.78874 12.54418 1.279942
1.159524 99.83638 23.3969 -1.219655 0.1388604 0.4246011 6.421991 -30.46693 -0.4063245 -0 18.35825 -0 -11.43297 -0.2169602 2.20831 -5.336317 13.61576 -14.60132 -0 19.4473 -0 8.017192 -18.46444 18.74851 -2.160818 -1.832803 5.916185 1.981285 10.5591 -6.708388 1.587217 21.65034 5.74449 3.330878 -24.00443 8.108424 5.658591 -19.1626 10.82629 85.81077 36.74057 -18.13267 -0 0 13.73258 -8.541688 8.54979 5.31033 5.51912 -20.71023 -3.169967 -91.27092 23.38409 20.31535 0 0 -18.28545 12.30404 12.59878 1.742217
1.203599 99.57363 28.52652 -1.560399 -0.06433565 0.5711722 6.874301 -30.08086 -1.07624 -0 16.5693 -0 -12.11533 1.66093 2.694888 -4.893182 13.45613 -13.04844 -0 24.73206 -0 6.598525 -16.73485 16.37786 -2.081971 -1.688811 5.847942 1.983387 10.56548 -6.734311 1.580744 21.60567 5.713144 3.347874 -23.95925 7.98574 5.661242 -18.99756 10.85912 85.70382 36.47496 -18.03896 -0 0 13.63005 -8.883244 8.715813 5.524029 5.515122 -20.73694 -3.145696 -91.185 23.40884 20.15276 0 0 -18.2567 11.86316 12.5789 2.147797
1.238167 99.67828 34.16324 -1.96897 -0.5201551 0.5998441 7.531335 -28.50522 -1.336483 -0 15.66636 -0 -12.80294 3.026164 2.903035 -4.303442 12.62812 -11.38953 -0 31.74361 -0 5.074648 -13.98988 13.98973 -2.042174 -1.55849 5.804402 1.967176 10.57034 -6.726422 1.569716 21.5838 5.684185 3.360277 -23.86995 7.861222 5.643068 -18.8832 10.89429 85.5506 36.28954 -17.824 -0 0 13.56767 -9.266741 8.846479 5.802858 5.477353 -20.71495 -3.136648 -91.03597 23.38262 19.97324 0 0 -18.24217 11.4792 12.47717 2.491089
1.261676 100.2608 40.17165 -2.401544 -1.296118 0.3879987 8.28857 -25.5509 -1.227469 -0 15.48244 -0 -13.49116 3.572599 2.742348 -3.548023 10.72671 -9.73118 -0 40.46137 -0 3.552663 -10.39028 11.82952 -2.047285 -1.448351 5.800605 1.922552 10.57417 -6.671841 1.556442 21.5893 5.655526 3.365266 -23.7301 7.738356 5.595916 -18.84356 10.92957 85.32906 36.19869 -17.4431 -0 0 13.58002 -9.70053 8.936676 6.158634 5.401747 -20.63025 -3.136774 -90.82907 23.30916 19.79915 0 0 -18.23254 11.16214 12.28521 2.767486
1.280313 101.3406 46.30608 -2.682575 -2.312994 -0.1391093 8.802771 -21.16601 -0.9351533 -0 15.36581 -0 -14.1365 3.007797 2.242181 -2.727262 7.254954 -8.30103 -0 50.06682 -0 2.164505 -6.530176 10.15161 -2.105855 -1.364963 5.850667 1.83955 10.57233 -6.556119 1.541639 21.62457 5.628538 3.360767 -23.53496 7.621005 5.508223 -18.90649 10.96428 85.00027 36.2099 -16.82752 -0 0 13.71542 -10.21069 8.983573 6.617528 5.284459 -20.4619 -3.130756 -90.56973 23.18692 19.65571 0 0 -18.20331 10.90957 11.99244 2.976384
1.305757 102.7684 52.2655 -2.525098 -3.292908 -0.9005695 8.606756 -15.64852 -0.7147829 -0 14.35074 -0 -14.65185 1.383299 1.655505 -2.071381 1.922328 -7.350239 -0 58.60882 -0 1.037875 -3.393771 9.101559 -2.22605 -1.312738 5.962956 1.712339 10.55283 -6.368023 1.52325 21.68566 5.610118 3.346535 -23.28638 7.512875 5.366539 -19.0969 11.00033 84.51003 36.30911 -15.89354 -0 0 14.03156 -10.84403 8.990121 7.218605 5.125032 -20.18575 -3.091161 -90.26759 23.00781 19.57005 0 0 -18.11019 10.69532 11.59114 3.128536
1.336144 104.2292 57.85486 -1.783411 -4.010676 -1.67329 7.569567 -9.704129 -0.6663035 -0 12.05425 -0 -14.92315 -0.6066856 1.303865 -1.695993 -4.757056 -6.840217 -0 63.58267 -0 0.3494322 -1.744165 8.734205 -2.404903 -1.291893 6.135214 1.545166 10.49869 -6.109241 1.497904 21.75852 5.611011 3.324051 -23.00307 7.419078 5.162849 -19.4229 11.04019 83.81515 36.44577 -14.59273 -0 0 14.57452 -11.64175 8.96905 7.986436 4.93265 -19.79003 -2.98331 -89.95233 22.77316 19.57627 0 0 -17.89977 10.46535 11.09505 3.259402
